<?xml version="1.0" standalone="no"?><!DOCTYPE svg PUBLIC "-//W3C//DTD SVG 1.1//EN" "http://www.w3.org/Graphics/SVG/1.1/DTD/svg11.dtd"><svg t="1758872133260" class="icon" viewBox="0 0 1024 1024" version="1.1" xmlns="http://www.w3.org/2000/svg" p-id="3728" xmlns:xlink="http://www.w3.org/1999/xlink" width="200" height="200"><path d="M511.593 1.227c-135.62 0-265.717 53.798-361.653 149.734C54.004 246.897 0.002 376.994 0.002 512.614c0 135.62 53.798 265.716 149.734 361.652S375.768 1024 511.388 1024c282.49 0 511.386-228.897 511.386-511.386 0-135.62-53.797-265.717-149.734-361.653C777.31 55.025 647.212 1.227 511.593 1.227z m0 0" fill="#FF509B" p-id="3729"></path><path d="M169.373 336.288c0 34.57 0 68.73 0.614 103.095 0.409 18 1.022 35.797 2.454 53.798 1.637 21.274 3.887 43.161 5.728 64.844 0 1.023 0.613 1.84 0.613 2.454 7.364-0.409 14.524-1.022 21.683-1.022 30.683-0.819 60.548 3.273 89.186 14.523 13.91 5.728 27.615 12.069 39.684 21.274 10.023 7.568 12.273 16.978 6.954 30.683a40.866 40.866 0 0 1-15.546 20.455c-16.978 13.296-34.365 25.16-54.82 31.91-14.32 4.91-29.047 8.388-43.98 10.842-19.432 2.864-39.274 4.296-59.116 6.137-4.091 0.614-7.977 0-12.273 0-1.841 0-2.455-1.023-2.455-2.864-0.204-8.796-1.023-18-1.636-27.001-1.023-11.66-2.25-23.115-3.478-34.774l-5.727-48.48c-2.046-17.182-4.296-33.956-6.341-50.934-1.841-16.773-3.478-33.342-5.728-49.911-2.66-18.82-5.318-37.638-8.182-56.662-2.864-22.296-7.16-44.593-12.887-66.275-0.41-1.023 0.614-2.864 1.227-3.478 19.228-7.364 38.457-14.932 57.48-22.705 5.932-3.069 6.546-3.887 6.546 4.09z m412.382 0c0 34.57 0 68.73 0.613 103.095 0.41 18 1.023 35.797 2.455 53.798 1.637 21.274 3.887 43.161 5.728 64.844 0 1.023 0.613 1.84 0.613 2.454 7.364-0.409 14.524-1.022 21.683-1.022 30.479-0.819 60.548 3.273 89.186 14.523 14.114 5.728 27.615 12.069 39.683 21.274 10.024 7.568 12.274 16.978 6.75 30.478-2.863 8.183-8.181 15.342-15.545 20.456-16.978 13.5-34.57 25.16-54.821 31.91-14.319 4.91-29.047 8.387-43.98 10.637-19.432 2.864-39.274 4.296-59.115 6.341-4.092 0.614-7.978 0-12.274 0-1.84 0-2.659-1.022-2.659-2.863-0.205-8.796-0.818-18.001-1.432-27.002-1.023-11.66-2.25-23.319-3.477-34.774l-5.728-48.275c-1.84-17.182-4.295-34.16-6.136-51.138-1.841-16.774-3.478-33.343-5.933-49.707-2.659-18.82-5.318-37.638-8.182-56.866-2.863-22.297-7.16-44.593-13.091-66.276-0.205-1.023 0.818-2.864 1.432-3.273 19.228-7.364 38.456-14.932 57.48-22.91 6.136-2.864 6.75-3.682 6.75 4.296zM470.273 520.387c10.227 0 20.455 0.204 30.683 0.613 2.454 0 3.886 1.841 3.886 4.296 0.205 5.318 0.614 10.228 0.614 15.342 0 23.728-0.41 47.865 0 71.594 0.41 19.228 1.023 38.047 1.227 57.275 0 1.023 0 2.455 0.41 4.5-10.842 0-21.888 0.205-32.116 0-1.022 0-2.659-1.636-2.659-2.659-1.432-16.978-2.864-33.752-4.5-50.73l-4.296-47.047c-1.227-15.955-2.863-32.115-4.295-48.48 0-1.022 0-1.84-0.41-3.272 3.887-0.819 7.774-1.432 11.456-1.432z m412.382 0c10.227 0 20.455 0.204 30.478 0.613 2.66 0 3.887 1.841 3.887 4.296 0.204 5.318 0.613 10.228 0.613 15.342 0 23.728-0.409 47.865 0 71.594 0.41 19.228 1.023 38.047 1.228 57.275 0 1.023 0 2.455 0.409 4.5-10.842 0-21.888 0.205-32.115 0-1.023 0-2.455-1.636-2.455-2.659-1.432-16.978-2.864-33.752-4.5-50.73l-4.296-47.047c-1.227-15.955-2.864-32.115-4.295-48.48 0-1.022 0-1.84-0.41-3.272 3.887-0.819 7.774-1.432 11.456-1.432z m-503.818-1.432c1.227 7.773 2.659 15.546 3.477 23.728 1.841 13.296 2.864 26.592 4.296 39.888 1.432 11.66 2.454 23.115 3.886 34.775 1.228 12.273 2.864 24.75 4.5 37.433 0.41 3.477 0.819 7.364 1.228 11.25-11.25 1.432-22.297 2.66-34.16 4.296-10.024-50.32-19.843-100.436-29.457-150.756 8.183-1.023 15.956-2.455 23.729-3.273 5.727-0.819 11.455-0.819 16.978-1.432 3.068-0.205 4.91 1.227 5.523 4.09z m412.382 0c1.227 7.773 2.454 15.546 3.477 23.728 1.841 13.296 2.864 26.592 4.296 39.888l3.886 34.775 4.5 37.433c0.41 3.477 1.023 7.364 1.432 11.25-11.25 1.432-22.296 2.66-34.16 4.296-10.228-50.32-19.842-100.027-29.456-150.756 8.182-1.023 15.955-2.455 23.728-3.273 5.728-0.819 11.455-0.819 16.978-1.432 2.864-0.205 4.91 1.227 5.319 4.09zM425.884 378.017l2.864 43.979c1.227 19.842 2.864 39.684 4.296 59.525 1.022 14.32 1.432 28.638 2.863 42.957 1.432 15.75 2.864 31.297 4.296 46.843 1.432 11.25 2.455 23.114 3.273 34.365 1.432 12.273 2.66 24.751 3.477 37.638l1.023 10.637c0 1.84-0.818 2.25-2.864 1.84-10.023-1.022-19.841-1.431-30.478-2.454-9.205-92.458-16.978-185.53-34.365-278.603l17.182-1.841 20.251-1.227c5.728-0.41 7.773 0.818 8.182 6.34z m412.382 0l2.864 43.979c1.227 19.842 2.864 39.684 4.296 59.525 1.022 14.32 1.636 28.638 2.863 42.957 1.432 15.75 2.864 31.297 4.296 46.843 1.227 11.25 2.25 23.114 3.273 34.365 1.227 12.273 2.66 24.751 3.477 37.638l1.023 10.637c0.205 1.84-0.818 2.25-2.864 1.84-10.227-1.022-19.841-1.431-30.478-2.454-9.205-92.458-16.978-185.53-34.365-278.603l17.182-1.841 20.251-1.227c5.728-0.41 7.773 0.818 8.182 6.34zM471.91 445.11c2.66 0.204 3.477 0.613 3.477 3.682-0.409 7.773 0 15.955 0 23.728v29.456c-5.727 0.613-11.045 1.023-16.364 1.227-1.636-18.819-2.864-37.842-4.5-58.093h17.387z m412.587 0c2.659 0.204 3.477 0.613 3.477 3.682-0.41 7.773 0 15.955 0 23.728v29.456c-5.728 0.613-11.046 1.023-16.364 1.227-1.637-18.819-2.864-37.842-4.5-58.093h17.387z m-384.972 0.409c2.864 0 4.296 1.023 4.296 4.5v53.184l-21.07-1.023V445.52h16.774z m412.382 0c2.864 0 4.295 1.023 4.295 4.5v53.184l-21.069-1.023V445.52h16.774z m-572.753-3.273c2.66-0.41 1.841 1.84 2.455 3.477l1.84 19.228c1.024 10.228 2.455 19.842 3.274 30.07v3.887l-15.751 2.659c-3.477-18.82-6.75-37.638-10.228-56.866 6.137-0.614 12.069-2.046 18.41-2.455z m412.382 0c2.66-0.41 1.841 1.84 2.455 3.477l1.84 19.228c1.023 10.228 2.455 19.842 3.274 30.07v3.887l-15.751 2.659c-3.478-18.82-6.75-37.638-10.228-56.866 6.137-0.614 12.069-2.046 18.41-2.455z m-384.767-3.273c1.841 0 2.864 1.227 3.477 3.477 1.637 18.001 3.273 35.388 5.319 53.798-6.75 0.819-13.296 1.023-20.456 1.637l-7.364-58.503c6.342-0.409 12.683-0.409 19.024-0.409z m412.382 0c1.84 0 2.864 1.227 3.273 3.477 1.636 18.001 3.273 35.388 5.318 53.798-6.75 0.819-13.296 1.023-20.455 1.637l-7.364-58.503c6.546-0.409 13.091-0.409 19.228-0.409z m0 0" fill="#FFFFFF" p-id="3730"></path><path d="M208.443 596.072c2.864 21.069 5.932 42.138 8.796 64.025 18-13.5 34.978-26.592 52.366-39.683-2.455-2.864-49.912-21.887-61.162-24.342z m412.382 0c2.863 21.069 5.727 42.138 8.796 64.025 18-13.5 34.978-26.592 52.366-39.683-2.455-2.864-49.912-21.887-61.162-24.342z m0 0" fill="#F66E98" p-id="3731"></path></svg>
