<?xml version="1.0" standalone="no"?><!DOCTYPE svg PUBLIC "-//W3C//DTD SVG 1.1//EN" "http://www.w3.org/Graphics/SVG/1.1/DTD/svg11.dtd"><svg t="1759735426454" class="icon" viewBox="0 0 1024 1024" version="1.1" xmlns="http://www.w3.org/2000/svg" p-id="1740" width="256" height="256" xmlns:xlink="http://www.w3.org/1999/xlink"><path d="M514.813187 514.813187m-368.527473 0a368.527473 368.527473 0 1 0 737.054945 0 368.527473 368.527473 0 1 0-737.054945 0Z" fill="#36EAB7" p-id="1741"></path><path d="M522.69011 647.032967c-14.065934 0-25.881319-11.815385-25.881319-25.881319V377.52967c0-14.065934 11.815385-25.881319 25.881319-25.881318 14.065934 0 25.881319 11.815385 25.881319 25.881318v244.184616c0 14.065934-11.815385 25.318681-25.881319 25.318681z" fill="#FDFFFE" p-id="1742"></path><path d="M537.881319 632.967033l-6.189011 6.189011c-8.43956 8.43956-22.505495 8.43956-30.945055 0L403.410989 541.257143c-8.43956-8.43956-8.43956-22.505495 0-30.945055l6.189011-6.189011c8.43956-8.43956 22.505495-8.43956 30.945055 0L538.443956 602.021978c7.876923 9.002198 7.876923 22.505495-0.562637 30.945055z" fill="#FDFFFE" p-id="1743"></path><path d="M513.125275 639.156044l-6.189011-6.189011c-8.43956-8.43956-8.43956-22.505495 0-30.945055l97.898901-97.898901c8.43956-8.43956 22.505495-8.43956 30.945055 0l6.189011 6.189011c8.43956 8.43956 8.43956 22.505495 0 30.945055l-97.898901 97.898901c-8.43956 8.43956-22.505495 8.43956-30.945055 0z" fill="#FDFFFE" p-id="1744"></path></svg>