<?xml version="1.0" standalone="no"?><!DOCTYPE svg PUBLIC "-//W3C//DTD SVG 1.1//EN" "http://www.w3.org/Graphics/SVG/1.1/DTD/svg11.dtd"><svg t="1761408903271" class="icon" viewBox="0 0 1024 1024" version="1.1" xmlns="http://www.w3.org/2000/svg" p-id="15604" xmlns:xlink="http://www.w3.org/1999/xlink" width="256" height="256"><path d="M512 64c247.424 0 448 200.576 448 448s-200.576 448-448 448S64 759.424 64 512 264.576 64 512 64z m-0.064 600.16c-186.592 0-241.376 9.984-241.376 27.104V768h220.256v-78.016h42.368v77.504h220.16v-76.736l-0.064-1.024c-2.24-16.128-58.528-25.6-241.344-25.6z m9.6-114.08H502.4c-113.888 0.32-196.448 6.336-193.312 36.832l-1.664 0.8a1919.68 1919.68 0 0 1-29.376 13.824l-9.952 4.544c-11.648 5.248-22.912 10.048-29.44 12.16-17.632 5.76-30.816 22.784 31.36 35.936 0.928-12.8 74.528-27.744 241.92-27.744 167.424 0 241.056 15.488 241.92 27.744 62.368-12.896 49.152-30.176 31.36-35.52a321.6 321.6 0 0 1-29.408-12.064l-9.952-4.544c-16.416-7.584-31.04-14.752-31.04-14.752 3.136-30.496-79.424-36.864-193.28-37.216z m-9.824-122.784c-78.848 0-140.8 8.96-134.656 39.392 0 0-57.984 22.656-83.2 30.08-25.216 7.392-26.752 15.584-27.52 24.16-0.768 8.576 29.952 18.656 50.016 39.36 3.744-20.448 68.256-37.184 195.584-37.184 127.36 0 192 16.736 195.584 37.216 20.096-20.864 50.56-30.816 49.792-39.392-0.768-8.576-2.176-16.768-27.52-24.16a612.48 612.48 0 0 1-31.2-10.496l-10.112-3.68c-21.824-8-42.112-15.904-42.112-15.904 6.24-30.4-55.808-39.36-134.656-39.36zM511.936 192c-13.536 0-23.904 8.064-11.904 32.992 0 0-7.552 3.2 0 8.576v15.072l-2.976 0.64c-10.144 2.944-11.808 14.208-9.824 28.416a198.08 198.08 0 0 1-73.856 60.352c-51.2 25.6-81.664 29.792-83.296 49.376-1.696 19.552 28.288 21.984 49.28 43.648 0.256-2.752 6.016-33.056 132.576-33.056 126.592 0 132.352 30.304 132.608 33.28l4.064-3.808c20.608-17.888 47.04-21.76 45.344-40.064-1.792-19.584-31.744-23.424-83.328-49.376a198.08 198.08 0 0 1-73.984-60.352c2.304-15.36 0-27.392-12.8-29.056V233.6l1.984-1.728c3.904-4.32-1.952-6.848-1.952-6.848 12.032-24.96 1.664-32.992-11.936-32.992z" fill="#FB6868" p-id="15605"></path></svg>