<?xml version="1.0" standalone="no"?><!DOCTYPE svg PUBLIC "-//W3C//DTD SVG 1.1//EN" "http://www.w3.org/Graphics/SVG/1.1/DTD/svg11.dtd"><svg t="1758873032421" class="icon" viewBox="0 0 1024 1024" version="1.1" xmlns="http://www.w3.org/2000/svg" p-id="5624" xmlns:xlink="http://www.w3.org/1999/xlink" width="200" height="200"><path d="M960.032 521.92c0-36.8-3.04-63.68-9.632-91.552H521.184v166.24h251.936c-5.088 41.312-32.512 103.552-93.44 145.344l-0.864 5.568 135.68 103.04 9.408 0.928c86.368-78.176 136.128-193.152 136.128-329.536z" fill="#4285F4" p-id="5625"></path><path d="M521.152 960c123.424 0 227.04-39.808 302.72-108.512l-144.224-109.536c-38.624 26.4-90.432 44.8-158.496 44.8A274.688 274.688 0 0 1 261.12 600.64l-5.344 0.448-141.12 107.008-1.856 5.024C187.968 859.456 342.4 960 521.152 960z" fill="#34A853" p-id="5626"></path><path d="M261.12 600.608a270.816 270.816 0 0 1-15.232-88.64c0-30.848 5.568-60.704 14.72-88.576l-0.256-5.92-142.88-108.768-4.672 2.176A441.12 441.12 0 0 0 64.032 512c0 72.192 17.792 140.384 48.768 201.088L261.12 600.64z" fill="#FBBC05" p-id="5627"></path><path d="M521.152 237.216c85.856 0 143.744 36.352 176.768 66.72l129.024-123.456C747.712 108.288 644.576 64 521.152 64 342.4 64 187.968 164.544 112.768 310.88l147.84 112.512c37.056-108 139.68-186.176 260.544-186.176z" fill="#EB4335" p-id="5628"></path></svg>