<?xml version="1.0" standalone="no"?><!DOCTYPE svg PUBLIC "-//W3C//DTD SVG 1.1//EN" "http://www.w3.org/Graphics/SVG/1.1/DTD/svg11.dtd"><svg t="1761395129720" class="icon" viewBox="0 0 1024 1024" version="1.1" xmlns="http://www.w3.org/2000/svg" p-id="5177" xmlns:xlink="http://www.w3.org/1999/xlink" width="256" height="256"><path d="M836.48 718.048l144.64 71.072h-178.4c-9.088 9.472-29.6 29.184-39.552 37.76L704 949.12l-3.968-77.216c-56.48 28.64-120.352 42.112-188.032 42.112C282.24 914.016 113.152 741.76 113.152 512 113.152 282.24 282.24 111.008 512 111.008c229.76 0 399.232 171.232 399.232 400.992 0 74.976-17.152 145.28-51.84 206.048h-22.912z" fill="#FFFFFF" p-id="5178"></path><path d="M866.624 729.536A414.048 414.048 0 0 0 928 512c0-229.696-186.24-416-415.968-416C282.24 96 96 282.304 96 512c0 229.728 186.24 416 416.032 416 74.048 0 143.584-19.36 203.808-53.28l-3.776-34.88A382.208 382.208 0 0 1 512 896C299.936 896 128 724.064 128 512S299.936 128 512 128s384 171.936 384 384c0 72.416-20.064 140.16-54.912 197.984l25.536 19.552z" fill="#5D6D7E" p-id="5179"></path><path d="M754.24 581.824L636.544 512l13.696 285.44c-26.144 11.744-31.936-54.464-31.936-54.464 10.944-219.904-89.792-237.312-119.68-243.104-29.952-5.76-54.432-8.704-54.432-46.336 0-37.6 47.648-50.624 65.312-46.272 17.664 4.256 40.8-59.392-21.824-92.608-62.528-33.344-84.288 27.424-97.856 81.024-13.632 53.568-38.144 39.04-43.616-23.168-5.376-62.24-20.32-14.432-32.64 11.584-12.192 26.048-81.632 57.856-87.008 34.752-3.392-14.496 1.696-47.232 6.016-69.6 62.688-97.824 168.192-161.984 287.776-161.984 129.792 0 242.72 75.68 302.688 187.648 6.08 54.72-20.096 103.936-52.32 113.376-39.488 11.584-32.64 57.856-32.64 57.856 7.36 13.312 12.64 25.056 16.16 35.68z" fill="#30AD98" p-id="5180"></path><path d="M682.56 592l298.56 197.12-180.704 11.968L704 949.12l-21.44-357.12z m47.584 258.368l52.192-80.16 101.856-6.72-165.856-109.536 11.808 196.416z" fill="#27A2DF" p-id="5181"></path><path d="M272.768 614.016c42.816 10.464 93.28 9.344 93.28 9.344-52.64 80.352-46.24 149.568-38.56 182.08a373.664 373.664 0 0 1-111.808-107.712c-16.352-57.696-21.664-121.376-21.664-121.376s43.008 28.928 78.752 37.664z" fill="#ACB4C0" p-id="5182"></path></svg>